<?xml version="1.0" encoding="UTF-8" standalone="no"?><svg xmlns="http://www.w3.org/2000/svg" xmlns:xlink="http://www.w3.org/1999/xlink" fill="#f4f1e8" height="588.7" preserveAspectRatio="xMidYMid meet" version="1" viewBox="-0.6 -2.5 751.2 588.7" width="751.2" zoomAndPan="magnify"><g data-name="Layer 2"><g data-name="Layer 6" id="change1_1"><path d="M379.7,153.606V78.385c14.007-2.934,28.354-.684,43.443,1.692,10.326,1.627,20.85,3.284,31.563,3.284a80.766,80.766,0,0,0,24.539-3.551l5.5-1.732V.333L474.524,3.551c-15.747,4.96-31.868,2.422-48.938-.268-18.107-2.851-36.833-5.8-56.1.268l-5.5,1.731V154.234L233.929,285.823V586.158h77.013V469.718c0-34.981,27.544-64.415,62.515-65.241a64.128,64.128,0,0,1,65.6,64.039V586.158h77.012V285.951ZM375,350.953a69.433,69.433,0,1,1,69.432-69.433A69.511,69.511,0,0,1,375,350.953Z"/><path d="M375,233.037a48.484,48.484,0,1,0,48.483,48.483A48.538,48.538,0,0,0,375,233.037ZM403.055,288.5H375a6.984,6.984,0,0,1-6.983-6.983V253.466a6.983,6.983,0,0,1,13.966,0v21.071h21.072a6.983,6.983,0,1,1,0,13.966Z"/><path d="M739.525,565.21H702.6V292h34.361a10.475,10.475,0,0,0,10.474-10.475V258.555a10.472,10.472,0,0,0-3.556-7.865l-79.828-70.217a10.478,10.478,0,0,0-6.919-2.61H434.775l96.017,93.183h0L533.84,274a10.475,10.475,0,0,1,3.18,7.516V586.159H739.525a10.475,10.475,0,1,0,0-20.949Zm-91.547-61.2A10.475,10.475,0,0,1,637.5,514.483H583.919a10.475,10.475,0,0,1-10.474-10.475V450.424a10.474,10.474,0,0,1,10.474-10.474H637.5a10.474,10.474,0,0,1,10.474,10.474Zm0-98.634A10.475,10.475,0,0,1,637.5,415.848H583.919a10.475,10.475,0,0,1-10.474-10.474V351.79a10.475,10.475,0,0,1,10.474-10.475H637.5a10.475,10.475,0,0,1,10.474,10.475Z"/><path d="M311.178,177.863H92.865a10.477,10.477,0,0,0-6.918,2.61L6.118,250.69a10.472,10.472,0,0,0-3.556,7.865V281.52A10.475,10.475,0,0,0,13.036,292H47.4V565.21H10.475a10.475,10.475,0,1,0,0,20.949H212.98V281.52a10.474,10.474,0,0,1,3.025-7.363l3.075-3.111h0ZM176.556,504.008a10.475,10.475,0,0,1-10.475,10.475H112.5a10.474,10.474,0,0,1-10.474-10.475V450.424A10.474,10.474,0,0,1,112.5,439.95h53.583a10.474,10.474,0,0,1,10.475,10.474Zm0-98.634a10.475,10.475,0,0,1-10.475,10.474H112.5a10.474,10.474,0,0,1-10.474-10.474V351.79A10.474,10.474,0,0,1,112.5,341.315h53.583a10.475,10.475,0,0,1,10.475,10.475Z"/></g></g></svg>